<svg id="svg" version="1.1" xmlns="http://www.w3.org/2000/svg" xmlns:xlink="http://www.w3.org/1999/xlink" width="400" height="160.67551266586247" viewBox="0, 0, 400,160.67551266586247"><g id="svgg"><path id="path0" d="M0.000 80.333 L 0.000 160.667 200.000 160.667 L 400.000 160.667 400.000 80.333 L 400.000 0.000 393.614 0.000 L 387.229 0.000 386.827 1.375 C 386.366 2.954,386.352 4.243,386.788 5.046 C 387.623 6.586,386.972 8.994,385.394 10.196 C 384.874 10.593,384.051 11.269,383.565 11.700 C 381.203 13.794,379.246 13.295,378.400 10.384 C 377.654 7.816,374.182 6.806,370.333 8.036 C 369.554 8.285,368.215 8.607,367.358 8.752 C 364.588 9.221,363.356 9.702,362.359 10.705 C 360.566 12.506,360.816 12.833,363.983 12.833 C 367.166 12.833,367.000 12.687,367.000 15.491 C 367.000 18.209,366.453 17.840,372.833 19.426 C 376.522 20.342,378.519 20.920,380.000 21.500 C 382.597 22.516,383.218 22.809,384.417 23.585 C 394.137 29.882,397.879 37.993,395.658 47.953 C 395.409 49.069,394.701 50.430,393.223 52.630 C 389.006 58.909,388.426 62.294,390.499 68.518 C 391.477 71.453,391.406 72.611,390.219 73.107 C 388.486 73.831,387.722 72.732,387.251 68.833 C 386.412 61.891,384.746 59.183,382.597 61.269 C 381.031 62.791,380.517 65.375,381.076 68.917 C 381.899 74.125,383.006 78.211,384.521 81.627 C 386.005 84.974,385.537 86.991,383.234 87.178 C 380.721 87.381,379.803 85.790,379.501 80.707 C 379.343 78.051,379.108 76.225,378.667 74.250 C 378.586 73.883,378.357 72.800,378.159 71.843 C 377.196 67.179,375.744 64.412,373.973 63.863 C 373.667 63.769,372.667 63.567,371.750 63.416 C 370.833 63.265,369.461 62.995,368.700 62.816 C 367.940 62.637,367.246 62.534,367.159 62.588 C 367.023 62.672,366.907 123.247,367.042 123.372 C 367.065 123.393,371.696 123.449,377.333 123.497 L 387.583 123.583 387.583 135.583 L 387.583 147.583 365.167 147.583 L 342.750 147.583 342.708 107.591 C 342.682 82.694,342.606 67.540,342.508 67.441 C 342.359 67.292,341.858 67.624,339.329 69.545 L 338.502 70.173 338.460 81.295 L 338.417 92.417 327.667 92.500 C 321.754 92.546,316.823 92.644,316.708 92.718 C 316.486 92.862,316.386 121.889,316.604 122.978 L 316.708 123.498 327.562 123.540 L 338.417 123.583 338.417 135.583 L 338.417 147.583 315.417 147.583 L 292.417 147.583 292.374 123.958 L 292.332 100.333 290.437 100.333 C 288.001 100.333,288.169 100.596,287.992 96.505 C 287.913 94.667,287.765 92.695,287.664 92.123 C 286.638 86.297,285.415 82.878,284.106 82.178 C 283.511 81.861,283.393 82.020,283.183 83.417 C 283.087 84.058,282.893 85.296,282.752 86.167 C 282.611 87.037,282.456 88.013,282.409 88.333 C 282.361 88.654,282.211 89.610,282.076 90.458 C 281.940 91.306,281.713 92.731,281.571 93.625 C 281.428 94.519,281.209 95.888,281.084 96.667 C 280.959 97.446,280.734 98.871,280.583 99.833 C 280.433 100.796,280.208 102.221,280.083 103.000 C 279.957 103.779,279.738 105.148,279.596 106.042 C 279.454 106.936,279.227 108.361,279.091 109.209 C 278.956 110.056,278.806 111.013,278.758 111.333 C 278.710 111.654,278.559 112.611,278.421 113.459 C 278.283 114.307,278.058 115.713,277.921 116.584 C 277.783 117.455,277.555 118.898,277.413 119.792 C 277.272 120.686,277.092 121.867,277.013 122.417 C 276.934 122.967,276.790 123.867,276.693 124.417 C 276.596 124.967,276.400 126.148,276.258 127.042 C 276.116 127.935,275.884 129.398,275.742 130.292 C 275.600 131.185,275.404 132.367,275.307 132.917 C 275.210 133.467,275.066 134.367,274.987 134.917 C 274.908 135.467,274.728 136.648,274.587 137.541 C 274.445 138.435,274.219 139.860,274.085 140.708 C 273.951 141.556,273.720 143.000,273.573 143.917 C 273.425 144.833,273.243 146.019,273.169 146.553 C 273.095 147.086,273.007 147.548,272.975 147.579 C 272.943 147.611,266.607 147.692,258.895 147.759 L 244.873 147.881 244.611 147.482 C 244.468 147.263,244.306 146.746,244.251 146.333 C 244.160 145.639,244.022 144.802,243.416 141.250 C 243.291 140.517,243.066 139.167,242.917 138.250 C 242.768 137.333,242.545 135.983,242.421 135.250 C 242.297 134.517,242.075 133.167,241.926 132.250 C 241.778 131.333,241.589 130.246,241.506 129.833 C 241.422 129.421,241.309 128.708,241.254 128.250 C 241.199 127.792,241.084 127.079,240.999 126.667 C 240.913 126.254,240.722 125.167,240.574 124.250 C 240.425 123.333,240.203 121.983,240.079 121.250 C 239.955 120.517,239.732 119.167,239.583 118.250 C 239.434 117.333,239.208 115.983,239.082 115.250 C 238.956 114.517,238.730 113.167,238.579 112.250 C 238.236 110.166,237.863 108.003,237.659 106.917 C 237.573 106.458,237.430 105.596,237.341 105.000 C 237.166 103.828,236.822 101.737,236.402 99.292 C 236.256 98.444,236.079 97.337,236.007 96.833 C 235.936 96.329,235.798 95.504,235.701 95.000 C 235.604 94.496,235.401 93.333,235.251 92.417 C 234.980 90.766,234.683 88.992,234.246 86.417 C 234.121 85.683,233.897 84.333,233.748 83.417 C 233.598 82.500,233.396 81.337,233.299 80.833 C 233.202 80.329,233.064 79.504,232.993 79.000 C 232.921 78.496,232.747 77.408,232.604 76.583 C 232.462 75.758,232.229 74.371,232.085 73.500 C 231.942 72.629,231.712 71.242,231.574 70.417 C 231.436 69.592,231.242 68.354,231.142 67.667 C 231.037 66.945,230.863 66.360,230.730 66.283 C 230.592 66.204,230.490 65.836,230.475 65.367 C 230.462 64.936,230.390 65.746,230.315 67.167 C 230.099 71.290,229.036 75.945,227.518 79.417 C 224.763 85.717,220.827 91.257,216.599 94.785 L 215.781 95.468 215.992 96.275 C 216.108 96.720,216.299 97.383,216.417 97.750 C 216.535 98.117,216.764 98.867,216.925 99.417 C 217.086 99.967,217.312 100.717,217.427 101.083 C 217.542 101.450,217.762 102.200,217.915 102.750 C 218.068 103.300,218.256 103.938,218.333 104.167 C 218.410 104.396,218.591 104.996,218.736 105.500 C 218.880 106.004,219.194 107.092,219.433 107.917 C 219.672 108.742,219.928 109.667,220.003 109.972 C 220.077 110.278,220.209 110.728,220.295 110.972 C 220.382 111.217,220.584 111.867,220.744 112.417 C 220.904 112.967,221.130 113.717,221.247 114.083 C 221.363 114.450,221.589 115.237,221.750 115.833 C 221.911 116.429,222.138 117.217,222.256 117.583 C 222.374 117.950,222.595 118.700,222.748 119.250 C 222.901 119.800,223.090 120.438,223.167 120.667 C 223.244 120.896,223.433 121.533,223.587 122.083 C 223.864 123.068,224.174 124.106,224.583 125.417 C 224.698 125.783,224.923 126.571,225.083 127.167 C 225.244 127.763,225.470 128.550,225.587 128.917 C 225.703 129.283,225.930 130.033,226.091 130.583 C 226.253 131.133,226.479 131.883,226.594 132.250 C 226.709 132.617,226.929 133.367,227.082 133.917 C 227.235 134.467,227.423 135.104,227.500 135.333 C 227.577 135.563,227.756 136.162,227.898 136.667 C 228.131 137.493,228.705 139.478,229.442 142.000 C 229.589 142.504,229.801 143.217,229.912 143.583 C 230.024 143.950,230.248 144.700,230.411 145.250 C 230.573 145.800,230.772 146.467,230.853 146.733 C 230.934 146.999,231.000 147.318,231.000 147.443 C 231.000 147.631,229.024 147.662,219.048 147.626 L 207.097 147.583 206.986 147.083 C 206.925 146.808,206.706 145.983,206.500 145.250 C 206.293 144.517,206.065 143.654,205.991 143.333 C 205.864 142.772,205.729 142.258,204.748 138.583 C 203.943 135.571,203.817 135.090,203.675 134.500 C 203.598 134.179,203.372 133.317,203.172 132.583 C 202.972 131.850,202.748 130.987,202.675 130.667 C 202.602 130.346,202.373 129.483,202.167 128.750 C 201.960 128.017,201.731 127.154,201.658 126.833 C 201.585 126.513,201.362 125.650,201.162 124.917 C 200.962 124.183,200.735 123.321,200.658 123.000 C 200.581 122.679,200.408 122.004,200.274 121.500 C 200.139 120.996,199.791 119.683,199.500 118.583 C 199.209 117.483,198.861 116.171,198.726 115.667 C 198.592 115.162,198.420 114.487,198.345 114.167 C 198.270 113.846,198.040 112.983,197.833 112.250 C 197.627 111.517,197.398 110.654,197.325 110.333 C 197.252 110.013,197.028 109.150,196.828 108.417 C 196.628 107.683,196.404 106.821,196.330 106.500 C 195.538 103.068,195.550 103.081,193.622 103.407 C 192.868 103.535,191.780 103.690,191.206 103.753 C 189.505 103.938,189.667 101.594,189.667 126.121 L 189.667 147.668 166.542 147.626 L 143.417 147.583 143.375 147.167 C 143.310 146.523,142.846 143.096,142.585 141.333 C 142.456 140.462,142.231 138.850,142.084 137.750 C 141.633 134.356,141.326 132.150,141.075 130.493 C 140.942 129.618,140.833 128.667,140.833 128.379 C 140.833 128.091,140.760 127.663,140.671 127.428 L 140.508 127.000 131.102 127.000 L 121.696 127.000 121.591 127.708 C 121.305 129.635,120.728 133.847,120.581 135.083 C 120.526 135.542,120.414 136.329,120.332 136.833 C 120.249 137.337,120.062 138.650,119.915 139.750 C 119.769 140.850,119.545 142.462,119.417 143.333 C 119.289 144.204,119.143 145.343,119.092 145.865 C 119.041 146.386,118.926 147.005,118.837 147.240 L 118.674 147.668 95.296 147.626 L 71.917 147.583 71.875 116.042 C 71.847 95.208,71.776 84.500,71.666 84.500 C 71.575 84.500,71.500 84.730,71.500 85.011 C 71.500 85.292,71.418 85.675,71.319 85.861 C 71.156 86.164,71.007 86.962,70.508 90.200 C 70.427 90.722,70.285 91.547,70.193 92.033 C 70.100 92.519,69.902 93.667,69.752 94.583 C 69.603 95.500,69.378 96.850,69.252 97.583 C 69.127 98.317,68.900 99.667,68.748 100.583 C 68.596 101.500,68.367 102.850,68.240 103.583 C 67.884 105.635,67.556 107.587,67.258 109.417 C 67.109 110.333,66.918 111.458,66.833 111.917 C 66.749 112.375,66.558 113.500,66.409 114.417 C 66.260 115.333,66.035 116.683,65.910 117.417 C 65.786 118.150,65.640 119.050,65.586 119.417 C 65.533 119.783,65.421 120.421,65.338 120.833 C 65.255 121.246,65.065 122.333,64.915 123.250 C 64.765 124.167,64.540 125.517,64.414 126.250 C 64.289 126.983,64.063 128.333,63.912 129.250 C 63.569 131.334,63.196 133.497,62.992 134.583 C 62.906 135.042,62.763 135.904,62.674 136.500 C 62.523 137.511,62.307 138.814,61.750 142.083 C 61.625 142.817,61.406 144.129,61.265 145.000 C 61.123 145.871,60.944 146.808,60.867 147.083 L 60.726 147.583 54.292 147.627 C 48.267 147.668,47.852 147.652,47.779 147.377 C 47.694 147.056,47.495 145.943,47.088 143.500 C 46.943 142.629,46.707 141.242,46.565 140.417 C 46.158 138.062,45.869 136.380,45.579 134.667 C 45.431 133.796,45.234 132.686,45.141 132.200 C 45.048 131.714,44.905 130.889,44.823 130.366 C 44.741 129.844,44.564 128.779,44.431 128.000 C 44.298 127.221,44.069 125.871,43.922 125.000 C 43.775 124.129,43.538 122.742,43.396 121.917 C 43.254 121.092,43.102 120.192,43.059 119.917 C 43.015 119.642,42.869 118.779,42.734 118.000 C 42.599 117.221,42.373 115.908,42.232 115.083 C 41.973 113.558,41.673 111.817,41.256 109.417 C 41.128 108.683,40.902 107.333,40.752 106.417 C 40.602 105.500,40.409 104.412,40.323 104.000 C 40.238 103.587,40.094 102.763,40.004 102.167 C 39.914 101.571,39.731 100.446,39.598 99.667 C 39.465 98.888,39.242 97.575,39.103 96.750 C 38.964 95.925,38.732 94.575,38.588 93.750 C 38.047 90.670,37.805 89.220,37.657 88.177 C 37.574 87.588,37.435 86.875,37.349 86.594 C 37.263 86.313,37.143 85.646,37.083 85.111 C 37.022 84.576,36.922 84.189,36.861 84.250 C 36.800 84.311,36.712 98.586,36.667 115.972 L 36.583 147.583 24.500 147.583 L 12.417 147.583 12.375 80.343 C 12.341 26.661,12.375 13.077,12.541 12.971 C 12.820 12.794,42.855 12.800,43.134 12.976 C 43.253 13.052,43.425 13.595,43.515 14.182 C 43.605 14.769,43.790 15.963,43.927 16.833 C 44.065 17.704,44.249 18.942,44.337 19.583 C 44.426 20.225,44.570 21.125,44.657 21.583 C 44.744 22.042,44.936 23.242,45.084 24.250 C 45.231 25.258,45.454 26.721,45.581 27.500 C 45.707 28.279,45.931 29.704,46.079 30.667 C 46.228 31.629,46.456 33.092,46.586 33.917 C 46.914 35.986,47.299 38.452,47.419 39.250 C 47.515 39.893,47.755 41.426,48.252 44.583 C 48.583 46.684,48.963 49.128,49.081 49.917 C 49.136 50.283,49.295 51.296,49.434 52.167 C 49.573 53.038,49.797 54.462,49.931 55.333 C 50.066 56.204,50.283 57.592,50.414 58.417 C 50.544 59.242,50.772 60.704,50.921 61.667 C 51.069 62.629,51.293 64.054,51.419 64.833 C 51.546 65.612,51.769 67.075,51.917 68.083 C 52.064 69.092,52.256 70.292,52.343 70.750 C 52.430 71.208,52.583 72.146,52.682 72.833 C 52.781 73.521,52.959 74.721,53.077 75.500 C 53.196 76.279,53.379 77.517,53.484 78.250 C 53.873 80.972,54.489 82.490,54.497 80.750 C 54.499 80.475,54.608 79.650,54.739 78.917 C 54.871 78.183,55.102 76.796,55.254 75.833 C 55.761 72.599,56.007 71.089,56.189 70.083 C 56.288 69.533,56.434 68.633,56.513 68.083 C 56.690 66.843,57.071 64.420,57.417 62.333 C 57.561 61.462,57.784 60.075,57.913 59.250 C 58.041 58.425,58.266 57.038,58.412 56.167 C 58.557 55.296,58.749 54.058,58.837 53.417 C 58.926 52.775,59.069 51.875,59.156 51.417 C 59.243 50.958,59.436 49.796,59.585 48.833 C 59.843 47.171,59.972 46.357,60.567 42.667 C 60.707 41.796,60.862 40.821,60.911 40.500 C 60.960 40.179,61.113 39.223,61.252 38.375 C 61.391 37.528,61.621 36.103,61.765 35.209 C 61.908 34.315,62.128 32.946,62.254 32.167 C 62.676 29.556,63.010 27.425,63.154 26.417 C 63.232 25.867,63.378 24.967,63.478 24.417 C 63.655 23.439,63.856 22.202,64.415 18.667 C 64.567 17.704,64.798 16.334,64.929 15.622 C 65.060 14.909,65.167 14.108,65.167 13.842 C 65.167 12.768,64.162 12.833,80.804 12.836 C 89.116 12.837,96.010 12.898,96.124 12.970 C 96.288 13.074,96.340 25.603,96.374 73.459 C 96.406 119.090,96.464 133.864,96.611 134.011 C 96.758 134.158,96.829 133.971,96.906 133.227 C 96.962 132.690,97.083 131.872,97.175 131.410 C 97.267 130.947,97.413 130.010,97.500 129.326 C 97.656 128.106,97.919 126.311,98.403 123.167 C 99.091 118.695,99.594 115.322,99.832 113.583 C 99.919 112.942,100.065 111.967,100.155 111.417 C 100.246 110.867,100.435 109.648,100.577 108.708 C 100.944 106.262,101.295 103.924,101.589 101.958 C 101.729 101.019,101.921 99.811,102.015 99.275 C 102.110 98.739,102.254 97.764,102.337 97.108 C 102.420 96.453,102.598 95.204,102.734 94.333 C 103.337 90.458,103.929 86.484,104.163 84.750 C 104.249 84.108,104.394 83.171,104.483 82.667 C 104.573 82.162,104.766 80.925,104.911 79.917 C 105.057 78.908,105.287 77.352,105.422 76.458 C 105.556 75.565,105.783 74.065,105.924 73.125 C 106.066 72.185,106.292 70.779,106.425 70.000 C 106.559 69.221,106.669 68.358,106.669 68.083 C 106.669 67.808,106.741 67.321,106.830 67.000 C 106.918 66.679,107.065 65.817,107.156 65.083 C 107.246 64.350,107.439 63.000,107.585 62.083 C 107.730 61.167,107.959 59.667,108.095 58.750 C 108.230 57.833,108.453 56.333,108.590 55.417 C 108.727 54.500,108.911 53.225,108.998 52.583 C 109.086 51.942,109.232 50.967,109.322 50.417 C 109.413 49.867,109.602 48.648,109.743 47.708 C 110.111 45.262,110.461 42.924,110.756 40.958 C 110.896 40.019,111.088 38.811,111.182 38.275 C 111.276 37.739,111.421 36.764,111.504 36.108 C 111.586 35.453,111.773 34.167,111.918 33.250 C 112.063 32.333,112.292 30.833,112.428 29.917 C 112.563 29.000,112.786 27.500,112.923 26.583 C 113.060 25.667,113.243 24.392,113.330 23.750 C 113.416 23.108,113.561 22.171,113.651 21.667 C 113.742 21.162,113.938 19.887,114.087 18.833 C 114.236 17.779,114.465 16.317,114.596 15.583 C 114.727 14.850,114.834 14.009,114.833 13.714 C 114.833 12.806,114.330 12.833,131.167 12.833 C 148.532 12.833,147.418 12.752,147.574 14.039 C 147.633 14.522,147.785 15.592,147.913 16.417 C 148.041 17.242,148.259 18.667,148.397 19.583 C 148.535 20.500,148.694 21.550,148.750 21.917 C 148.806 22.283,148.960 23.315,149.092 24.208 C 149.583 27.518,149.825 29.125,150.075 30.750 C 150.217 31.667,150.411 33.017,150.507 33.750 C 150.603 34.483,150.752 35.346,150.840 35.667 C 150.927 35.987,150.998 36.475,150.998 36.750 C 150.998 37.025,151.107 37.887,151.241 38.667 C 151.375 39.446,151.601 40.852,151.742 41.792 C 151.884 42.731,152.110 44.231,152.245 45.125 C 152.380 46.019,152.609 47.575,152.755 48.583 C 152.901 49.592,153.094 50.829,153.183 51.333 C 153.273 51.837,153.417 52.775,153.504 53.417 C 153.702 54.891,154.079 57.432,154.417 59.583 C 154.561 60.500,154.754 61.850,154.844 62.583 C 154.935 63.317,155.082 64.179,155.170 64.500 C 155.259 64.821,155.331 65.308,155.331 65.583 C 155.331 65.858,155.441 66.721,155.575 67.500 C 155.708 68.279,155.934 69.685,156.076 70.625 C 156.217 71.565,156.449 73.102,156.591 74.042 C 156.733 74.981,156.958 76.387,157.092 77.167 C 157.226 77.946,157.335 78.808,157.335 79.083 C 157.335 79.358,157.408 79.846,157.496 80.167 C 157.585 80.487,157.732 81.350,157.822 82.083 C 157.913 82.817,158.106 84.167,158.251 85.083 C 158.396 86.000,158.626 87.500,158.761 88.417 C 158.897 89.333,159.120 90.833,159.257 91.750 C 159.394 92.667,159.576 93.942,159.663 94.583 C 159.749 95.225,159.894 96.162,159.983 96.667 C 160.073 97.171,160.266 98.408,160.411 99.417 C 160.833 102.330,161.163 104.473,161.425 106.000 C 161.559 106.779,161.668 107.597,161.668 107.817 C 161.667 108.037,161.772 108.787,161.901 109.483 C 162.029 110.180,162.258 111.612,162.409 112.667 C 162.561 113.721,162.755 114.996,162.842 115.500 C 162.928 116.004,163.077 116.979,163.173 117.667 C 163.340 118.864,163.702 121.340,163.917 122.750 C 163.973 123.117,164.132 124.167,164.270 125.083 C 164.759 128.314,165.270 131.112,165.353 131.000 C 165.386 130.954,165.452 104.367,165.499 71.917 L 165.583 12.917 179.917 12.919 C 192.855 12.921,194.428 12.950,196.083 13.218 C 199.129 13.711,202.520 14.576,204.443 15.351 C 204.704 15.456,205.067 15.601,205.250 15.674 C 207.681 16.641,211.561 18.866,213.584 20.452 C 216.799 22.973,219.932 26.154,221.678 28.667 C 221.901 28.988,222.121 29.287,222.167 29.333 C 222.390 29.557,223.127 30.689,224.070 32.260 C 225.421 34.509,225.577 34.358,225.096 31.271 C 224.966 30.434,224.735 28.700,224.584 27.417 C 224.432 26.133,224.242 24.671,224.161 24.167 C 224.079 23.662,223.969 22.762,223.915 22.167 C 223.862 21.571,223.744 20.633,223.654 20.083 C 223.565 19.533,223.421 18.446,223.334 17.667 C 223.248 16.887,223.099 15.621,223.002 14.851 C 222.905 14.082,222.870 13.313,222.925 13.142 C 223.020 12.842,223.447 12.833,235.220 12.874 L 247.416 12.917 247.700 14.667 C 247.857 15.629,248.105 17.354,248.252 18.500 C 248.399 19.646,248.624 21.333,248.752 22.250 C 248.879 23.167,249.104 24.817,249.251 25.917 C 249.397 27.017,249.589 28.367,249.677 28.917 C 249.765 29.467,249.911 30.517,250.000 31.250 C 250.090 31.983,250.270 33.371,250.400 34.333 C 250.531 35.296,250.726 36.796,250.835 37.667 C 251.152 40.213,251.493 40.379,251.497 37.990 C 251.500 36.669,252.027 32.560,252.341 31.417 C 252.609 30.438,252.995 29.336,254.667 24.773 C 254.947 24.007,255.453 23.073,255.884 22.523 C 256.289 22.006,256.829 21.171,257.083 20.667 C 258.141 18.567,258.837 17.787,260.559 16.769 C 261.279 16.344,262.270 15.638,262.761 15.200 C 266.426 11.934,273.108 10.840,280.500 12.296 L 283.250 12.838 292.250 12.794 L 301.250 12.750 301.506 11.941 C 301.763 11.127,301.836 11.047,304.030 9.151 C 305.484 7.895,306.165 7.727,308.010 8.169 C 308.717 8.339,309.201 8.339,310.486 8.170 C 313.662 7.754,314.669 8.494,315.697 12.000 L 315.917 12.750 321.978 12.794 L 328.038 12.838 327.955 12.377 C 327.908 12.124,327.779 11.467,327.668 10.917 C 327.263 8.914,327.663 7.740,329.063 6.827 C 329.532 6.521,330.280 5.984,330.724 5.634 C 331.169 5.284,331.731 4.955,331.974 4.901 C 332.218 4.848,332.894 4.652,333.478 4.465 C 334.912 4.007,335.752 4.135,337.027 5.005 C 337.569 5.375,338.253 5.723,338.548 5.779 C 340.256 6.104,340.901 7.261,341.920 11.833 C 342.324 13.643,342.305 13.603,342.574 13.234 C 342.766 12.971,343.066 12.907,344.314 12.859 C 346.016 12.793,345.846 12.957,346.248 11.000 C 346.851 8.068,348.915 3.112,350.389 1.061 C 350.725 0.593,351.000 0.163,351.000 0.105 C 351.000 0.047,272.025 0.000,175.500 0.000 L 0.000 0.000 0.000 80.333 M367.111 34.611 C 366.889 34.833,366.983 46.946,367.208 47.130 C 367.510 47.377,370.595 47.834,371.937 47.830 C 378.579 47.814,383.450 41.803,379.411 38.609 C 377.504 37.101,367.781 33.941,367.111 34.611 M266.555 35.917 C 266.555 36.558,266.586 36.800,266.622 36.455 C 266.658 36.109,266.657 35.584,266.620 35.288 C 266.583 34.992,266.554 35.275,266.555 35.917 M189.958 37.170 C 189.632 37.371,189.497 79.474,189.821 79.985 C 190.451 80.981,195.353 79.423,198.083 77.360 C 208.615 69.402,208.806 46.194,198.393 39.621 C 195.485 37.785,191.051 36.497,189.958 37.170 M320.206 37.708 C 319.634 38.416,322.849 50.369,324.618 54.116 C 326.336 57.755,329.714 58.864,332.257 56.625 C 333.939 55.145,334.782 49.177,334.181 43.005 C 333.737 38.445,333.673 37.958,333.486 37.733 C 333.216 37.408,320.468 37.384,320.206 37.708 M289.096 46.602 C 289.033 47.142,288.913 47.808,288.829 48.083 C 288.746 48.358,288.603 49.146,288.511 49.833 C 288.419 50.521,288.225 51.796,288.081 52.667 C 287.936 53.538,287.707 54.962,287.572 55.833 C 287.436 56.704,287.213 58.129,287.075 59.000 C 286.378 63.405,286.370 63.500,286.691 63.500 C 287.950 63.500,290.106 55.706,289.895 51.917 C 289.605 46.713,289.311 44.761,289.096 46.602 M131.188 49.987 C 130.980 50.115,130.821 51.233,130.332 56.000 C 130.242 56.871,130.096 58.146,130.007 58.833 C 129.832 60.182,129.511 62.875,129.085 66.583 C 128.937 67.867,128.711 69.817,128.582 70.917 C 128.453 72.017,128.228 73.967,128.084 75.250 C 127.939 76.533,127.747 78.108,127.658 78.750 C 127.569 79.392,127.423 80.629,127.334 81.500 C 127.245 82.371,127.062 84.021,126.928 85.167 C 126.793 86.313,126.565 88.263,126.422 89.500 C 126.278 90.737,126.046 92.725,125.905 93.917 C 125.765 95.108,125.580 96.758,125.495 97.583 C 125.410 98.408,125.266 99.608,125.176 100.250 C 124.857 102.510,124.625 105.152,124.724 105.408 C 124.830 105.686,137.521 105.812,137.936 105.539 C 138.194 105.370,137.989 103.109,137.242 97.894 C 137.109 96.965,137.000 95.900,137.000 95.527 C 137.000 95.155,136.926 94.490,136.836 94.050 C 136.746 93.610,136.595 92.537,136.500 91.667 C 136.405 90.796,136.220 89.183,136.088 88.083 C 135.957 86.983,135.734 85.108,135.592 83.917 C 135.450 82.725,135.222 80.850,135.084 79.750 C 134.947 78.650,134.760 77.037,134.669 76.167 C 134.579 75.296,134.430 74.058,134.340 73.417 C 134.249 72.775,134.059 71.275,133.916 70.083 C 133.774 68.892,133.547 66.998,133.412 65.875 C 133.277 64.752,133.056 62.915,132.921 61.792 C 132.786 60.669,132.559 58.775,132.416 57.583 C 132.273 56.392,132.078 54.854,131.983 54.167 C 131.888 53.479,131.750 52.258,131.678 51.453 C 131.534 49.856,131.511 49.787,131.188 49.987 M253.955 58.267 C 253.780 58.443,253.805 60.016,253.999 60.950 C 254.090 61.390,254.241 62.387,254.334 63.167 C 254.426 63.946,254.609 65.371,254.740 66.333 C 254.871 67.296,255.100 68.983,255.248 70.083 C 255.396 71.183,255.631 72.908,255.769 73.917 C 255.907 74.925,256.088 76.313,256.171 77.000 C 256.254 77.688,256.397 78.737,256.489 79.333 C 256.581 79.929,256.775 81.317,256.920 82.417 C 257.065 83.517,257.289 85.167,257.418 86.083 C 257.763 88.556,258.155 91.479,258.258 92.360 C 258.459 94.069,258.885 93.545,259.163 91.250 C 259.252 90.517,259.434 89.129,259.568 88.167 C 260.458 81.764,260.807 79.181,260.988 77.655 C 261.071 76.962,261.214 75.949,261.308 75.405 C 261.401 74.862,261.567 73.685,261.677 72.791 L 261.876 71.165 260.596 69.826 C 259.271 68.438,257.816 66.361,257.158 64.917 C 256.949 64.458,256.202 62.846,255.497 61.333 C 254.793 59.821,254.185 58.485,254.147 58.365 C 254.108 58.244,254.022 58.201,253.955 58.267 M291.446 78.079 C 290.202 79.708,290.185 83.533,291.393 89.833 C 291.862 92.279,292.046 92.991,292.189 92.903 C 292.388 92.780,292.376 77.546,292.177 77.423 C 292.091 77.370,291.762 77.665,291.446 78.079 " stroke="none" fill="#ec1d26" fill-rule="evenodd"></path><path id="path1" d="M350.386 1.047 C 348.316 4.122,345.336 12.251,345.980 13.068 C 346.058 13.168,346.167 14.150,346.220 15.250 C 346.662 24.330,353.684 31.115,365.647 34.023 C 366.140 34.143,366.622 34.366,366.718 34.520 C 366.847 34.727,366.962 34.756,367.160 34.632 C 368.103 34.043,377.491 37.091,379.411 38.609 C 383.450 41.803,378.579 47.814,371.937 47.830 C 370.117 47.835,367.468 47.372,367.142 46.992 C 366.913 46.725,366.851 46.713,366.772 46.919 C 366.448 47.765,362.113 45.931,359.667 43.914 C 356.589 41.375,355.181 41.673,352.965 45.333 C 348.016 53.505,348.996 56.510,357.750 60.002 C 361.589 61.533,361.600 61.536,363.868 61.665 C 366.064 61.790,366.833 62.035,366.833 62.608 C 366.833 62.817,366.883 62.833,367.067 62.680 C 367.247 62.531,367.622 62.562,368.692 62.814 C 369.457 62.994,370.833 63.265,371.750 63.416 C 372.667 63.567,373.667 63.769,373.973 63.863 C 375.744 64.412,377.196 67.179,378.159 71.843 C 378.357 72.800,378.586 73.883,378.667 74.250 C 379.108 76.225,379.343 78.051,379.501 80.707 C 379.803 85.790,380.721 87.381,383.234 87.178 C 385.537 86.991,386.005 84.974,384.521 81.627 C 383.006 78.211,381.899 74.125,381.076 68.917 C 380.517 65.375,381.031 62.791,382.597 61.269 C 384.746 59.183,386.412 61.891,387.251 68.833 C 387.722 72.732,388.486 73.831,390.219 73.107 C 391.406 72.611,391.477 71.453,390.499 68.518 C 388.426 62.294,389.006 58.909,393.223 52.630 C 394.701 50.430,395.409 49.069,395.658 47.953 C 397.579 39.338,394.887 31.702,388.000 26.235 C 384.074 23.118,382.377 22.201,377.917 20.782 C 377.183 20.549,374.783 19.907,372.583 19.356 C 367.723 18.137,367.307 17.997,367.044 17.484 C 366.903 17.210,366.837 17.170,366.836 17.357 C 366.827 18.345,362.342 16.185,361.392 14.736 C 360.929 14.028,360.810 13.142,361.167 13.048 C 361.411 12.984,361.456 12.857,361.386 12.427 C 361.296 11.871,361.717 11.227,362.833 10.215 C 363.363 9.735,365.352 9.092,367.358 8.752 C 368.215 8.607,369.554 8.285,370.333 8.036 C 374.182 6.806,377.654 7.816,378.400 10.384 C 379.246 13.295,381.203 13.794,383.565 11.700 C 384.051 11.269,384.874 10.593,385.394 10.196 C 386.978 8.989,387.623 6.588,386.781 5.034 C 386.361 4.258,386.371 2.820,386.806 1.441 C 387.004 0.812,387.167 0.231,387.167 0.149 C 387.167 0.062,379.629 0.002,369.125 0.005 L 351.083 0.011 350.386 1.047 M333.417 4.490 C 332.958 4.665,332.423 4.813,332.227 4.820 C 332.030 4.828,331.505 5.096,331.060 5.417 C 330.614 5.739,329.791 6.312,329.229 6.693 C 327.649 7.763,327.249 8.846,327.668 10.917 C 327.779 11.467,327.910 12.133,327.957 12.397 C 328.005 12.661,328.166 12.999,328.314 13.148 C 329.140 13.978,331.913 25.612,332.848 32.167 C 332.946 32.854,333.170 34.068,333.347 34.864 C 333.716 36.536,333.742 37.025,333.474 37.293 C 333.328 37.439,333.329 37.544,333.480 37.726 C 333.673 37.958,333.736 38.438,334.181 43.005 C 334.782 49.177,333.939 55.145,332.257 56.625 C 329.714 58.864,326.336 57.755,324.618 54.116 C 322.896 50.468,319.617 38.358,320.188 37.754 C 320.284 37.652,320.212 37.493,319.995 37.330 C 319.621 37.047,319.225 35.510,318.734 32.429 C 318.587 31.505,318.209 29.363,317.894 27.667 C 317.579 25.971,317.245 23.796,317.153 22.833 C 317.061 21.871,316.914 20.721,316.826 20.279 C 316.738 19.837,316.667 19.231,316.667 18.932 C 316.667 18.634,316.438 17.235,316.159 15.823 C 315.698 13.491,315.676 13.238,315.919 13.061 C 316.086 12.939,316.122 12.825,316.015 12.759 C 315.920 12.700,315.763 12.337,315.665 11.951 C 314.827 8.629,313.634 7.757,310.486 8.170 C 309.201 8.339,308.717 8.339,308.010 8.169 C 306.197 7.734,305.454 7.906,304.140 9.065 C 303.712 9.442,302.999 10.058,302.556 10.435 C 301.632 11.220,300.960 12.783,301.431 13.050 C 301.590 13.140,301.668 13.492,301.670 14.133 C 301.673 15.257,302.022 17.789,302.479 20.000 C 302.658 20.871,303.004 22.933,303.248 24.583 C 303.492 26.233,303.805 28.183,303.945 28.917 C 304.338 30.984,304.471 32.000,304.486 33.057 C 304.503 34.242,304.928 36.373,306.002 40.667 C 306.449 42.454,306.942 44.517,307.097 45.250 C 307.252 45.983,307.637 47.446,307.953 48.500 C 308.268 49.554,308.702 51.092,308.919 51.917 C 310.348 57.367,311.800 60.552,315.103 65.486 C 315.734 66.428,316.331 67.341,316.431 67.514 C 317.123 68.718,320.110 70.806,322.500 71.757 C 326.074 73.180,327.248 75.648,327.993 83.305 C 328.291 86.365,329.046 87.436,330.607 87.016 C 332.034 86.632,332.238 85.588,331.457 82.667 C 329.409 74.999,330.042 71.556,333.325 72.498 C 334.224 72.755,335.002 72.442,336.445 71.241 C 337.255 70.567,337.877 70.171,338.083 70.198 C 338.267 70.221,338.808 69.943,339.286 69.579 C 341.629 67.795,342.333 67.314,342.474 67.400 C 342.557 67.452,342.672 67.263,342.729 66.981 C 342.785 66.698,343.320 65.617,343.916 64.579 C 344.512 63.540,345.000 62.649,345.000 62.599 C 345.000 62.549,345.261 61.949,345.581 61.267 C 347.749 56.636,348.233 50.405,347.169 40.833 C 347.082 40.054,346.893 38.179,346.749 36.667 C 346.284 31.789,344.880 24.276,343.448 19.000 C 343.024 17.437,342.759 15.639,342.754 14.289 C 342.751 13.227,342.713 13.044,342.546 13.273 C 342.307 13.600,342.322 13.635,341.920 11.833 C 340.901 7.261,340.256 6.104,338.548 5.779 C 338.253 5.723,337.561 5.370,337.010 4.994 C 335.772 4.148,334.706 3.999,333.417 4.490 M271.500 11.761 C 267.867 12.152,264.847 13.340,262.761 15.200 C 262.270 15.638,261.279 16.344,260.559 16.769 C 258.837 17.787,258.141 18.567,257.083 20.667 C 256.829 21.171,256.289 22.006,255.884 22.523 C 255.453 23.073,254.947 24.007,254.667 24.773 C 252.995 29.336,252.609 30.438,252.341 31.417 C 252.031 32.546,251.500 36.664,251.500 37.935 C 251.500 39.195,251.392 39.722,251.162 39.581 C 251.087 39.534,251.088 39.741,251.164 40.040 C 251.239 40.339,251.347 42.070,251.404 43.888 C 251.545 48.423,251.686 49.363,253.143 55.500 C 253.241 55.913,253.411 56.792,253.520 57.455 C 253.693 58.504,253.747 58.622,253.937 58.371 C 254.065 58.203,254.158 58.168,254.161 58.286 C 254.164 58.398,254.754 59.748,255.472 61.286 C 256.190 62.825,256.949 64.458,257.158 64.917 C 257.813 66.354,259.268 68.436,260.575 69.804 C 261.267 70.528,261.839 71.262,261.846 71.435 C 261.854 71.611,261.897 71.658,261.944 71.542 C 262.088 71.184,262.327 71.303,263.473 72.303 C 264.807 73.469,265.472 73.949,268.833 76.173 C 270.254 77.113,271.942 78.386,272.583 79.002 C 275.662 81.958,277.973 82.836,280.672 82.077 C 282.225 81.640,283.022 81.580,283.193 81.886 C 283.275 82.033,283.447 82.113,283.574 82.064 C 284.637 81.656,286.301 85.093,287.165 89.480 C 287.777 92.587,287.849 93.194,287.993 96.520 C 288.098 98.953,288.200 99.938,288.363 100.101 C 288.667 100.405,293.234 100.456,293.591 100.160 C 293.982 99.836,293.900 98.233,293.442 97.250 C 292.882 96.046,292.534 94.886,292.407 93.794 C 292.346 93.268,292.239 92.872,292.170 92.915 C 292.011 93.013,291.523 90.781,290.915 87.167 C 290.544 84.968,290.414 81.253,290.662 79.943 C 290.875 78.814,291.834 77.211,292.172 77.420 C 292.255 77.472,292.367 77.339,292.421 77.127 C 292.520 76.732,293.535 75.967,294.776 75.352 C 297.768 73.871,301.748 66.938,303.159 60.750 C 303.792 57.977,303.896 56.687,303.870 51.917 C 303.825 43.460,303.252 39.310,301.409 34.083 C 300.892 32.617,300.325 31.009,300.150 30.511 C 297.737 23.672,290.209 15.779,283.962 13.540 C 283.208 13.270,283.190 13.249,283.545 13.051 L 283.917 12.845 283.556 12.839 C 283.358 12.836,282.008 12.601,280.556 12.316 C 277.996 11.815,273.540 11.542,271.500 11.761 M277.505 27.092 C 283.507 29.235,286.592 32.716,288.341 39.316 C 288.617 40.360,288.888 41.287,288.942 41.374 C 288.996 41.461,289.101 42.482,289.175 43.641 C 289.249 44.801,289.387 46.209,289.483 46.770 C 289.905 49.255,289.972 53.130,289.635 55.643 C 289.163 59.166,287.547 63.399,286.625 63.530 C 286.385 63.564,286.231 63.717,286.197 63.955 C 286.007 65.293,282.081 66.214,278.874 65.673 C 274.783 64.983,271.239 60.998,268.113 53.572 C 267.318 51.682,266.616 48.404,265.928 43.362 C 265.899 43.149,265.941 42.437,266.023 41.779 C 266.348 39.148,266.520 37.189,266.531 36.000 C 266.542 34.813,266.549 34.792,266.662 35.583 L 266.781 36.417 266.805 35.667 C 267.009 29.306,272.156 25.182,277.505 27.092 " stroke="none" fill="#b544f9" fill-rule="evenodd"></path><path id="path2" d="M12.541 12.971 C 12.375 13.077,12.341 26.661,12.375 80.343 L 12.417 147.583 24.500 147.583 L 36.583 147.583 36.667 115.972 C 36.712 98.586,36.800 84.311,36.861 84.250 C 36.922 84.189,37.022 84.576,37.083 85.111 C 37.143 85.646,37.263 86.313,37.349 86.594 C 37.435 86.875,37.574 87.588,37.657 88.177 C 37.805 89.220,38.047 90.670,38.588 93.750 C 38.732 94.575,38.964 95.925,39.103 96.750 C 39.242 97.575,39.465 98.888,39.598 99.667 C 39.731 100.446,39.914 101.571,40.004 102.167 C 40.094 102.763,40.238 103.587,40.323 104.000 C 40.409 104.412,40.602 105.500,40.752 106.417 C 40.902 107.333,41.132 108.702,41.264 109.458 C 41.528 110.969,41.841 112.784,42.232 115.083 C 42.373 115.908,42.599 117.221,42.734 118.000 C 42.869 118.779,43.015 119.642,43.059 119.917 C 43.102 120.192,43.257 121.110,43.402 121.958 C 43.548 122.806,43.784 124.194,43.928 125.042 C 44.072 125.890,44.298 127.221,44.431 128.000 C 44.564 128.779,44.741 129.844,44.823 130.366 C 44.905 130.889,45.048 131.714,45.141 132.200 C 45.234 132.686,45.428 133.777,45.572 134.625 C 45.980 137.033,46.340 139.130,46.594 140.583 C 46.722 141.317,46.945 142.629,47.090 143.500 C 47.484 145.879,47.692 147.051,47.779 147.377 C 47.852 147.652,48.267 147.668,54.292 147.627 L 60.726 147.583 60.867 147.083 C 60.944 146.808,61.123 145.871,61.265 145.000 C 61.406 144.129,61.625 142.817,61.750 142.083 C 62.307 138.814,62.523 137.511,62.674 136.500 C 62.763 135.904,62.906 135.042,62.992 134.583 C 63.196 133.497,63.569 131.334,63.912 129.250 C 64.063 128.333,64.289 126.983,64.414 126.250 C 64.540 125.517,64.765 124.167,64.915 123.250 C 65.065 122.333,65.255 121.246,65.338 120.833 C 65.421 120.421,65.533 119.783,65.586 119.417 C 65.640 119.050,65.786 118.150,65.910 117.417 C 66.035 116.683,66.260 115.333,66.409 114.417 C 66.558 113.500,66.749 112.375,66.833 111.917 C 66.918 111.458,67.109 110.333,67.258 109.417 C 67.556 107.587,67.884 105.635,68.240 103.583 C 68.367 102.850,68.596 101.500,68.748 100.583 C 68.900 99.667,69.127 98.317,69.252 97.583 C 69.378 96.850,69.603 95.500,69.752 94.583 C 69.902 93.667,70.100 92.519,70.193 92.033 C 70.285 91.547,70.427 90.722,70.508 90.200 C 71.007 86.962,71.156 86.164,71.319 85.861 C 71.418 85.675,71.500 85.292,71.500 85.011 C 71.500 84.730,71.575 84.500,71.666 84.500 C 71.776 84.500,71.847 95.208,71.875 116.042 L 71.917 147.583 95.296 147.626 L 118.674 147.668 118.837 147.240 C 118.926 147.005,119.041 146.386,119.092 145.865 C 119.143 145.343,119.289 144.204,119.417 143.333 C 119.545 142.462,119.769 140.850,119.915 139.750 C 120.062 138.650,120.249 137.337,120.332 136.833 C 120.414 136.329,120.526 135.542,120.581 135.083 C 120.728 133.847,121.305 129.635,121.591 127.708 L 121.696 127.000 131.102 127.000 L 140.508 127.000 140.671 127.428 C 140.760 127.663,140.833 128.091,140.833 128.379 C 140.833 128.667,140.942 129.618,141.075 130.493 C 141.326 132.150,141.633 134.356,142.084 137.750 C 142.231 138.850,142.456 140.462,142.585 141.333 C 142.846 143.096,143.310 146.523,143.375 147.167 L 143.417 147.583 166.542 147.626 L 189.667 147.668 189.667 126.121 C 189.667 101.594,189.505 103.938,191.206 103.753 C 191.780 103.690,192.868 103.535,193.622 103.407 C 195.259 103.131,195.397 103.169,195.639 103.967 C 195.913 104.869,196.177 105.837,196.330 106.500 C 196.404 106.821,196.628 107.683,196.828 108.417 C 197.028 109.150,197.252 110.013,197.325 110.333 C 197.398 110.654,197.627 111.517,197.833 112.250 C 198.040 112.983,198.270 113.846,198.345 114.167 C 198.420 114.487,198.592 115.162,198.726 115.667 C 198.861 116.171,199.209 117.483,199.500 118.583 C 199.791 119.683,200.139 120.996,200.274 121.500 C 200.408 122.004,200.581 122.679,200.658 123.000 C 200.735 123.321,200.962 124.183,201.162 124.917 C 201.362 125.650,201.585 126.513,201.658 126.833 C 201.731 127.154,201.960 128.017,202.167 128.750 C 202.373 129.483,202.602 130.346,202.675 130.667 C 202.748 130.987,202.972 131.850,203.172 132.583 C 203.372 133.317,203.598 134.179,203.675 134.500 C 203.817 135.090,203.943 135.571,204.748 138.583 C 205.729 142.258,205.864 142.772,205.991 143.333 C 206.065 143.654,206.293 144.517,206.500 145.250 C 206.706 145.983,206.925 146.808,206.986 147.083 L 207.097 147.583 219.048 147.626 C 229.024 147.662,231.000 147.631,231.000 147.443 C 231.000 147.318,230.934 146.999,230.853 146.733 C 230.772 146.467,230.573 145.800,230.411 145.250 C 230.248 144.700,230.024 143.950,229.912 143.583 C 229.801 143.217,229.589 142.504,229.442 142.000 C 228.705 139.478,228.131 137.493,227.898 136.667 C 227.756 136.162,227.577 135.563,227.500 135.333 C 227.423 135.104,227.235 134.467,227.082 133.917 C 226.929 133.367,226.709 132.617,226.594 132.250 C 226.479 131.883,226.253 131.133,226.091 130.583 C 225.930 130.033,225.703 129.283,225.587 128.917 C 225.470 128.550,225.244 127.763,225.083 127.167 C 224.923 126.571,224.698 125.783,224.583 125.417 C 224.174 124.106,223.864 123.068,223.587 122.083 C 223.433 121.533,223.244 120.896,223.167 120.667 C 223.090 120.438,222.901 119.800,222.748 119.250 C 222.595 118.700,222.374 117.950,222.256 117.583 C 222.138 117.217,221.911 116.429,221.750 115.833 C 221.589 115.237,221.363 114.450,221.247 114.083 C 221.130 113.717,220.904 112.967,220.744 112.417 C 220.584 111.867,220.382 111.217,220.295 110.972 C 220.209 110.728,220.077 110.278,220.003 109.972 C 219.928 109.667,219.672 108.742,219.433 107.917 C 219.194 107.092,218.880 106.004,218.736 105.500 C 218.591 104.996,218.410 104.396,218.333 104.167 C 218.256 103.938,218.068 103.300,217.915 102.750 C 217.762 102.200,217.542 101.450,217.427 101.083 C 217.312 100.717,217.086 99.967,216.925 99.417 C 216.764 98.867,216.535 98.117,216.417 97.750 C 216.299 97.383,216.108 96.720,215.992 96.275 L 215.781 95.468 216.599 94.785 C 220.827 91.257,224.763 85.717,227.518 79.417 C 229.036 75.945,230.099 71.290,230.315 67.167 C 230.390 65.746,230.462 64.936,230.475 65.367 C 230.490 65.836,230.592 66.204,230.730 66.283 C 230.863 66.360,231.037 66.945,231.142 67.667 C 231.242 68.354,231.436 69.592,231.574 70.417 C 231.712 71.242,231.939 72.610,232.079 73.458 C 232.219 74.306,232.453 75.694,232.598 76.542 C 232.744 77.390,232.921 78.496,232.993 79.000 C 233.064 79.504,233.202 80.329,233.299 80.833 C 233.396 81.337,233.599 82.500,233.749 83.417 C 234.020 85.068,234.317 86.841,234.754 89.417 C 234.879 90.150,235.103 91.500,235.252 92.417 C 235.402 93.333,235.604 94.496,235.701 95.000 C 235.798 95.504,235.936 96.329,236.007 96.833 C 236.079 97.337,236.256 98.444,236.402 99.292 C 236.822 101.737,237.166 103.828,237.341 105.000 C 237.430 105.596,237.573 106.458,237.659 106.917 C 237.863 108.003,238.236 110.166,238.579 112.250 C 238.730 113.167,238.956 114.517,239.082 115.250 C 239.208 115.983,239.434 117.333,239.583 118.250 C 239.732 119.167,239.955 120.517,240.079 121.250 C 240.203 121.983,240.425 123.333,240.574 124.250 C 240.722 125.167,240.913 126.254,240.999 126.667 C 241.084 127.079,241.199 127.792,241.254 128.250 C 241.309 128.708,241.422 129.421,241.506 129.833 C 241.589 130.246,241.778 131.333,241.926 132.250 C 242.075 133.167,242.297 134.517,242.421 135.250 C 242.545 135.983,242.768 137.333,242.917 138.250 C 243.066 139.167,243.291 140.517,243.416 141.250 C 244.022 144.802,244.160 145.639,244.251 146.333 C 244.306 146.746,244.468 147.263,244.611 147.482 L 244.873 147.881 258.895 147.759 C 266.607 147.692,272.943 147.611,272.975 147.579 C 273.007 147.548,273.095 147.086,273.169 146.553 C 273.243 146.019,273.422 144.852,273.567 143.958 C 273.711 143.064,273.942 141.620,274.079 140.749 C 274.217 139.879,274.445 138.435,274.587 137.541 C 274.728 136.648,274.908 135.467,274.987 134.917 C 275.066 134.367,275.210 133.467,275.307 132.917 C 275.404 132.367,275.596 131.204,275.734 130.333 C 276.254 127.035,276.522 125.385,276.693 124.417 C 276.790 123.867,276.934 122.967,277.013 122.417 C 277.092 121.867,277.272 120.686,277.413 119.792 C 277.555 118.898,277.783 117.455,277.921 116.584 C 278.058 115.713,278.283 114.307,278.421 113.459 C 278.559 112.611,278.710 111.654,278.758 111.333 C 278.806 111.013,278.956 110.056,279.091 109.209 C 279.227 108.361,279.454 106.936,279.596 106.042 C 279.738 105.148,279.957 103.779,280.083 103.000 C 280.208 102.221,280.433 100.796,280.583 99.833 C 280.734 98.871,280.959 97.446,281.084 96.667 C 281.209 95.888,281.428 94.519,281.571 93.625 C 281.713 92.731,281.940 91.306,282.076 90.458 C 282.211 89.610,282.361 88.654,282.409 88.333 C 282.456 88.013,282.605 87.075,282.740 86.250 C 283.577 81.114,283.637 81.236,280.672 82.075 C 277.978 82.838,275.663 81.959,272.583 79.002 C 271.942 78.386,270.254 77.113,268.833 76.173 C 265.472 73.949,264.807 73.469,263.473 72.303 C 261.907 70.936,261.815 71.017,261.506 74.019 C 261.415 74.900,261.302 75.725,261.254 75.852 C 261.206 75.979,261.093 76.721,261.003 77.500 C 260.811 79.155,260.508 81.410,259.568 88.167 C 259.434 89.129,259.252 90.517,259.163 91.250 C 258.885 93.545,258.459 94.069,258.258 92.360 C 258.155 91.479,257.763 88.556,257.418 86.083 C 257.289 85.167,257.065 83.517,256.920 82.417 C 256.775 81.317,256.581 79.929,256.489 79.333 C 256.397 78.737,256.254 77.688,256.171 77.000 C 256.088 76.313,255.898 74.850,255.747 73.750 C 255.170 69.518,255.016 68.371,254.843 67.000 C 254.744 66.221,254.592 65.096,254.504 64.500 C 254.416 63.904,254.227 62.517,254.084 61.417 C 253.754 58.878,253.369 56.463,253.142 55.500 C 251.689 49.346,251.566 48.515,251.331 43.333 C 251.247 41.454,251.066 39.129,250.931 38.167 C 250.517 35.225,250.170 32.650,250.000 31.250 C 249.910 30.517,249.765 29.467,249.677 28.917 C 249.589 28.367,249.397 27.017,249.251 25.917 C 249.104 24.817,248.879 23.167,248.752 22.250 C 248.624 21.333,248.399 19.646,248.252 18.500 C 248.105 17.354,247.857 15.629,247.700 14.667 L 247.416 12.917 235.220 12.874 C 223.447 12.833,223.020 12.842,222.925 13.142 C 222.870 13.313,222.905 14.082,223.002 14.851 C 223.099 15.621,223.248 16.887,223.334 17.667 C 223.421 18.446,223.565 19.533,223.654 20.083 C 223.744 20.633,223.862 21.571,223.915 22.167 C 223.969 22.762,224.079 23.662,224.161 24.167 C 224.242 24.671,224.432 26.133,224.584 27.417 C 224.735 28.700,224.966 30.434,225.096 31.271 C 225.577 34.358,225.421 34.509,224.070 32.260 C 223.127 30.689,222.390 29.557,222.167 29.333 C 222.121 29.287,221.901 28.988,221.678 28.667 C 219.932 26.154,216.799 22.973,213.584 20.452 C 211.561 18.866,207.681 16.641,205.250 15.674 C 205.067 15.601,204.704 15.456,204.443 15.351 C 202.520 14.576,199.129 13.711,196.083 13.218 C 194.428 12.950,192.855 12.921,179.917 12.919 L 165.583 12.917 165.499 71.917 C 165.452 104.367,165.386 130.954,165.353 131.000 C 165.270 131.112,164.759 128.314,164.270 125.083 C 164.132 124.167,163.973 123.117,163.917 122.750 C 163.702 121.340,163.340 118.864,163.173 117.667 C 163.077 116.979,162.928 116.004,162.842 115.500 C 162.755 114.996,162.561 113.721,162.409 112.667 C 162.258 111.612,162.029 110.180,161.901 109.483 C 161.772 108.787,161.667 108.037,161.668 107.817 C 161.668 107.597,161.559 106.779,161.425 106.000 C 161.163 104.473,160.833 102.330,160.411 99.417 C 160.266 98.408,160.073 97.171,159.983 96.667 C 159.894 96.162,159.749 95.225,159.663 94.583 C 159.576 93.942,159.394 92.667,159.257 91.750 C 159.120 90.833,158.897 89.333,158.761 88.417 C 158.626 87.500,158.396 86.000,158.251 85.083 C 158.106 84.167,157.913 82.817,157.822 82.083 C 157.732 81.350,157.585 80.487,157.496 80.167 C 157.408 79.846,157.335 79.358,157.335 79.083 C 157.335 78.808,157.226 77.946,157.092 77.167 C 156.958 76.387,156.733 74.981,156.591 74.042 C 156.449 73.102,156.217 71.565,156.076 70.625 C 155.934 69.685,155.708 68.279,155.575 67.500 C 155.441 66.721,155.331 65.858,155.331 65.583 C 155.331 65.308,155.259 64.821,155.170 64.500 C 155.082 64.179,154.935 63.317,154.844 62.583 C 154.754 61.850,154.561 60.500,154.417 59.583 C 154.079 57.432,153.702 54.891,153.504 53.417 C 153.417 52.775,153.273 51.837,153.183 51.333 C 153.094 50.829,152.901 49.592,152.755 48.583 C 152.609 47.575,152.380 46.019,152.245 45.125 C 152.110 44.231,151.884 42.731,151.742 41.792 C 151.601 40.852,151.375 39.446,151.241 38.667 C 151.107 37.887,150.998 37.025,150.998 36.750 C 150.998 36.475,150.927 35.987,150.840 35.667 C 150.752 35.346,150.603 34.483,150.507 33.750 C 150.411 33.017,150.217 31.667,150.075 30.750 C 149.825 29.125,149.583 27.518,149.092 24.208 C 148.960 23.315,148.806 22.283,148.750 21.917 C 148.694 21.550,148.535 20.500,148.397 19.583 C 148.259 18.667,148.041 17.242,147.913 16.417 C 147.785 15.592,147.633 14.522,147.574 14.039 C 147.418 12.752,148.532 12.833,131.167 12.833 C 114.330 12.833,114.833 12.806,114.833 13.714 C 114.834 14.009,114.727 14.850,114.596 15.583 C 114.465 16.317,114.236 17.779,114.087 18.833 C 113.938 19.887,113.742 21.162,113.651 21.667 C 113.561 22.171,113.416 23.108,113.330 23.750 C 113.243 24.392,113.060 25.667,112.923 26.583 C 112.786 27.500,112.563 29.000,112.428 29.917 C 112.292 30.833,112.063 32.333,111.918 33.250 C 111.773 34.167,111.586 35.453,111.504 36.108 C 111.421 36.764,111.276 37.739,111.182 38.275 C 111.088 38.811,110.896 40.019,110.756 40.958 C 110.461 42.924,110.111 45.262,109.743 47.708 C 109.602 48.648,109.413 49.867,109.322 50.417 C 109.232 50.967,109.086 51.942,108.998 52.583 C 108.911 53.225,108.727 54.500,108.590 55.417 C 108.453 56.333,108.230 57.833,108.095 58.750 C 107.959 59.667,107.730 61.167,107.585 62.083 C 107.439 63.000,107.246 64.350,107.156 65.083 C 107.065 65.817,106.918 66.679,106.830 67.000 C 106.741 67.321,106.669 67.808,106.669 68.083 C 106.669 68.358,106.559 69.221,106.425 70.000 C 106.292 70.779,106.066 72.185,105.924 73.125 C 105.783 74.065,105.556 75.565,105.422 76.458 C 105.287 77.352,105.057 78.908,104.911 79.917 C 104.766 80.925,104.573 82.162,104.483 82.667 C 104.394 83.171,104.249 84.108,104.163 84.750 C 103.929 86.484,103.337 90.458,102.734 94.333 C 102.598 95.204,102.420 96.453,102.337 97.108 C 102.254 97.764,102.110 98.739,102.015 99.275 C 101.921 99.811,101.729 101.019,101.589 101.958 C 101.295 103.924,100.944 106.262,100.577 108.708 C 100.435 109.648,100.246 110.867,100.155 111.417 C 100.065 111.967,99.919 112.942,99.832 113.583 C 99.594 115.322,99.091 118.695,98.403 123.167 C 97.919 126.311,97.656 128.106,97.500 129.326 C 97.413 130.010,97.267 130.947,97.175 131.410 C 97.083 131.872,96.962 132.690,96.906 133.227 C 96.829 133.971,96.758 134.158,96.611 134.011 C 96.464 133.864,96.406 119.090,96.374 73.459 C 96.340 25.603,96.288 13.074,96.124 12.970 C 96.010 12.898,89.116 12.837,80.804 12.836 C 64.162 12.833,65.167 12.768,65.167 13.842 C 65.167 14.108,65.060 14.909,64.929 15.622 C 64.798 16.334,64.567 17.704,64.415 18.667 C 63.856 22.202,63.655 23.439,63.478 24.417 C 63.378 24.967,63.232 25.867,63.154 26.417 C 63.010 27.425,62.676 29.556,62.254 32.167 C 62.128 32.946,61.905 34.333,61.759 35.250 C 61.612 36.167,61.382 37.592,61.246 38.417 C 61.111 39.242,60.960 40.179,60.911 40.500 C 60.862 40.821,60.707 41.796,60.567 42.667 C 59.972 46.357,59.843 47.171,59.585 48.833 C 59.436 49.796,59.243 50.958,59.156 51.417 C 59.069 51.875,58.926 52.775,58.837 53.417 C 58.749 54.058,58.557 55.296,58.412 56.167 C 58.266 57.038,58.041 58.425,57.913 59.250 C 57.784 60.075,57.561 61.462,57.417 62.333 C 57.071 64.420,56.690 66.843,56.513 68.083 C 56.434 68.633,56.288 69.533,56.189 70.083 C 56.007 71.089,55.761 72.599,55.254 75.833 C 55.102 76.796,54.871 78.183,54.739 78.917 C 54.608 79.650,54.499 80.475,54.497 80.750 C 54.489 82.490,53.873 80.972,53.484 78.250 C 53.379 77.517,53.196 76.279,53.077 75.500 C 52.959 74.721,52.781 73.521,52.682 72.833 C 52.583 72.146,52.430 71.208,52.343 70.750 C 52.256 70.292,52.064 69.092,51.917 68.083 C 51.769 67.075,51.546 65.612,51.419 64.833 C 51.293 64.054,51.069 62.629,50.921 61.667 C 50.772 60.704,50.544 59.242,50.414 58.417 C 50.283 57.592,50.062 56.185,49.923 55.291 C 49.785 54.397,49.561 52.972,49.426 52.125 C 49.292 51.277,49.136 50.283,49.081 49.917 C 49.026 49.550,48.873 48.556,48.741 47.708 C 48.100 43.605,47.976 42.811,47.756 41.417 C 47.625 40.592,47.474 39.617,47.419 39.250 C 47.299 38.452,46.914 35.986,46.586 33.917 C 46.456 33.092,46.228 31.629,46.079 30.667 C 45.931 29.704,45.707 28.279,45.581 27.500 C 45.454 26.721,45.231 25.258,45.084 24.250 C 44.936 23.242,44.744 22.042,44.657 21.583 C 44.570 21.125,44.426 20.225,44.337 19.583 C 44.249 18.942,44.065 17.704,43.927 16.833 C 43.790 15.963,43.605 14.769,43.515 14.182 C 43.425 13.595,43.253 13.052,43.134 12.976 C 42.855 12.800,12.820 12.794,12.541 12.971 M283.545 13.051 C 283.190 13.249,283.208 13.270,283.962 13.540 C 290.209 15.779,297.737 23.672,300.150 30.511 C 300.325 31.009,300.892 32.617,301.409 34.083 C 303.944 41.273,304.761 53.725,303.159 60.750 C 301.663 67.310,297.861 73.726,294.371 75.582 C 293.754 75.910,293.063 76.334,292.833 76.525 L 292.417 76.871 292.417 85.727 C 292.417 95.424,292.375 94.958,293.442 97.250 C 294.192 98.861,293.958 100.243,292.917 100.360 L 292.417 100.417 292.417 124.000 L 292.417 147.583 315.417 147.583 L 338.417 147.583 338.417 135.583 L 338.417 123.583 327.562 123.540 L 316.708 123.498 316.604 122.978 C 316.386 121.889,316.486 92.862,316.708 92.718 C 316.823 92.644,321.754 92.546,327.667 92.500 L 338.417 92.417 338.417 81.333 C 338.417 68.415,338.616 69.435,336.445 71.242 C 335.002 72.442,334.224 72.755,333.325 72.498 C 330.042 71.556,329.409 74.999,331.457 82.667 C 332.238 85.588,332.034 86.632,330.607 87.016 C 329.046 87.436,328.291 86.365,327.993 83.305 C 327.248 75.648,326.074 73.180,322.500 71.757 C 320.110 70.806,317.123 68.718,316.431 67.514 C 316.331 67.341,315.734 66.428,315.103 65.486 C 311.800 60.552,310.348 57.367,308.919 51.917 C 308.702 51.092,308.268 49.554,307.953 48.500 C 307.637 47.446,307.252 45.983,307.097 45.250 C 306.942 44.517,306.449 42.454,306.002 40.667 C 304.928 36.373,304.503 34.242,304.486 33.057 C 304.471 32.000,304.338 30.984,303.945 28.917 C 303.805 28.183,303.492 26.233,303.248 24.583 C 303.004 22.933,302.658 20.871,302.479 20.000 C 302.022 17.788,301.673 15.257,301.670 14.131 C 301.667 13.362,301.605 13.145,301.344 13.006 C 300.847 12.739,284.029 12.783,283.545 13.051 M315.941 13.045 C 315.669 13.244,315.682 13.406,316.159 15.823 C 316.438 17.235,316.667 18.634,316.667 18.932 C 316.667 19.231,316.738 19.837,316.826 20.279 C 316.914 20.721,317.061 21.871,317.153 22.833 C 317.245 23.796,317.579 25.971,317.894 27.667 C 318.209 29.363,318.587 31.505,318.734 32.429 C 319.192 35.302,319.628 37.060,319.940 37.288 C 320.348 37.586,333.170 37.597,333.467 37.300 C 333.742 37.024,333.719 36.546,333.347 34.864 C 333.170 34.068,332.946 32.854,332.848 32.167 C 331.899 25.512,329.139 13.977,328.292 13.126 C 327.913 12.746,316.453 12.670,315.941 13.045 M342.926 13.056 C 342.486 13.378,342.786 16.666,343.484 19.167 C 344.815 23.935,346.288 31.832,346.749 36.667 C 346.893 38.179,347.082 40.054,347.169 40.833 C 348.233 50.405,347.749 56.636,345.581 61.267 C 345.261 61.949,345.000 62.549,345.000 62.599 C 345.000 62.649,344.494 63.566,343.875 64.637 L 342.750 66.583 342.750 107.083 L 342.750 147.583 365.167 147.583 L 387.583 147.583 387.583 135.583 L 387.583 123.583 377.333 123.497 C 371.696 123.449,367.065 123.393,367.042 123.372 C 367.019 123.351,367.000 109.763,367.000 93.178 C 367.000 74.488,366.940 62.863,366.841 62.604 C 366.593 61.952,366.082 61.791,363.839 61.664 C 361.604 61.536,361.583 61.531,357.750 60.002 C 348.996 56.510,348.016 53.505,352.965 45.333 C 355.181 41.673,356.589 41.375,359.667 43.914 C 361.531 45.451,365.043 47.167,366.327 47.167 C 366.952 47.167,367.000 46.704,367.000 40.696 C 367.000 33.928,367.112 34.362,365.250 33.918 C 353.769 31.179,346.656 24.201,346.220 15.250 C 346.167 14.150,346.049 13.156,345.958 13.042 C 345.727 12.751,343.328 12.762,342.926 13.056 M361.223 13.000 C 360.513 13.286,361.107 14.686,362.381 15.730 C 363.164 16.371,366.287 17.840,366.607 17.718 C 367.086 17.534,367.198 13.556,366.738 13.095 C 366.443 12.800,361.912 12.722,361.223 13.000 M273.083 26.886 C 269.155 28.204,266.852 31.375,266.825 35.500 C 266.823 35.821,266.714 36.571,266.583 37.167 C 266.452 37.762,266.341 38.625,266.335 39.083 C 266.330 39.542,266.247 40.254,266.152 40.667 C 265.922 41.658,265.917 43.837,266.142 45.083 C 266.241 45.633,266.442 46.796,266.589 47.667 C 266.961 49.864,267.608 52.370,268.113 53.572 C 271.927 62.633,275.775 66.084,281.740 65.792 C 285.345 65.616,286.206 64.908,286.658 61.750 C 286.750 61.108,286.943 59.833,287.087 58.917 C 287.231 58.000,287.454 56.575,287.583 55.750 C 287.712 54.925,287.936 53.538,288.081 52.667 C 288.225 51.796,288.419 50.521,288.512 49.833 C 288.605 49.146,288.754 48.321,288.845 48.000 C 289.095 47.114,289.229 43.034,289.040 42.083 C 287.560 34.657,285.065 30.798,280.077 28.222 C 276.939 26.601,275.021 26.235,273.083 26.886 M193.500 37.441 C 201.722 39.705,206.000 46.819,206.000 58.229 C 206.000 67.850,202.493 75.125,196.167 78.622 C 193.937 79.855,190.241 80.649,189.821 79.985 C 189.497 79.474,189.632 37.371,189.958 37.170 C 190.321 36.947,192.236 37.093,193.500 37.441 M131.678 51.453 C 131.750 52.258,131.888 53.479,131.983 54.167 C 132.078 54.854,132.273 56.392,132.416 57.583 C 132.559 58.775,132.786 60.669,132.921 61.792 C 133.056 62.915,133.277 64.752,133.412 65.875 C 133.547 66.998,133.774 68.892,133.916 70.083 C 134.059 71.275,134.249 72.775,134.340 73.417 C 134.430 74.058,134.579 75.296,134.669 76.167 C 134.760 77.037,134.947 78.650,135.084 79.750 C 135.222 80.850,135.450 82.725,135.592 83.917 C 135.734 85.108,135.957 86.983,136.088 88.083 C 136.220 89.183,136.405 90.796,136.500 91.667 C 136.595 92.537,136.746 93.610,136.836 94.050 C 136.926 94.490,137.000 95.155,137.000 95.527 C 137.000 95.900,137.109 96.965,137.242 97.894 C 137.989 103.109,138.194 105.370,137.936 105.539 C 137.521 105.812,124.830 105.686,124.724 105.408 C 124.625 105.152,124.857 102.510,125.176 100.250 C 125.266 99.608,125.410 98.408,125.495 97.583 C 125.580 96.758,125.765 95.108,125.905 93.917 C 126.046 92.725,126.278 90.737,126.422 89.500 C 126.565 88.263,126.793 86.313,126.928 85.167 C 127.062 84.021,127.245 82.371,127.334 81.500 C 127.423 80.629,127.569 79.392,127.658 78.750 C 127.747 78.108,127.939 76.533,128.084 75.250 C 128.228 73.967,128.453 72.017,128.582 70.917 C 128.711 69.817,128.937 67.867,129.085 66.583 C 129.511 62.875,129.832 60.182,130.007 58.833 C 130.096 58.146,130.242 56.871,130.332 56.000 C 130.821 51.233,130.980 50.115,131.188 49.987 C 131.511 49.787,131.534 49.856,131.678 51.453 " stroke="none" fill="#fbfbfb" fill-rule="evenodd"></path></g></svg>